<mxfile host="Electron" modified="2024-05-19T02:40:23.400Z" agent="Mozilla/5.0 (Windows NT 10.0; Win64; x64) AppleWebKit/537.36 (KHTML, like Gecko) draw.io/22.1.16 Chrome/120.0.6099.109 Electron/28.1.0 Safari/537.36" etag="vhgV8NxSrR8N2pPkTvTi" version="22.1.16" type="device">
  <diagram name="Page-1" id="v_gVXT-2C1-Ex_dfOq-r">
    <mxGraphModel dx="2462" dy="1003" grid="1" gridSize="10" guides="1" tooltips="1" connect="1" arrows="1" fold="1" page="0" pageScale="1" pageWidth="850" pageHeight="1100" math="0" shadow="0">
      <root>
        <mxCell id="0" />
        <mxCell id="1" parent="0" />
        <mxCell id="hlbekgY0zkf7wDWTZu2V-8" value="" style="edgeStyle=orthogonalEdgeStyle;rounded=0;orthogonalLoop=1;jettySize=auto;html=1;" edge="1" parent="1" source="hlbekgY0zkf7wDWTZu2V-6" target="hlbekgY0zkf7wDWTZu2V-7">
          <mxGeometry relative="1" as="geometry" />
        </mxCell>
        <mxCell id="hlbekgY0zkf7wDWTZu2V-6" value="&lt;font style=&quot;font-size: 16px;&quot;&gt;Wake up&lt;/font&gt;" style="rounded=0;whiteSpace=wrap;html=1;" vertex="1" parent="1">
          <mxGeometry x="340" y="50" width="120" height="60" as="geometry" />
        </mxCell>
        <mxCell id="hlbekgY0zkf7wDWTZu2V-16" value="" style="edgeStyle=orthogonalEdgeStyle;rounded=0;orthogonalLoop=1;jettySize=auto;html=1;" edge="1" parent="1" source="hlbekgY0zkf7wDWTZu2V-7" target="hlbekgY0zkf7wDWTZu2V-15">
          <mxGeometry relative="1" as="geometry" />
        </mxCell>
        <mxCell id="hlbekgY0zkf7wDWTZu2V-27" style="edgeStyle=orthogonalEdgeStyle;rounded=0;orthogonalLoop=1;jettySize=auto;html=1;exitX=0;exitY=0.5;exitDx=0;exitDy=0;endArrow=none;endFill=0;" edge="1" parent="1" source="hlbekgY0zkf7wDWTZu2V-7">
          <mxGeometry relative="1" as="geometry">
            <mxPoint x="280" y="360" as="targetPoint" />
          </mxGeometry>
        </mxCell>
        <mxCell id="hlbekgY0zkf7wDWTZu2V-28" value="Failed" style="edgeLabel;html=1;align=center;verticalAlign=middle;resizable=0;points=[];" vertex="1" connectable="0" parent="hlbekgY0zkf7wDWTZu2V-27">
          <mxGeometry x="-0.6792" y="-1" relative="1" as="geometry">
            <mxPoint as="offset" />
          </mxGeometry>
        </mxCell>
        <mxCell id="hlbekgY0zkf7wDWTZu2V-7" value="Connect to wifi" style="whiteSpace=wrap;html=1;rounded=0;" vertex="1" parent="1">
          <mxGeometry x="340" y="190" width="120" height="60" as="geometry" />
        </mxCell>
        <mxCell id="hlbekgY0zkf7wDWTZu2V-14" value="" style="edgeStyle=orthogonalEdgeStyle;rounded=0;orthogonalLoop=1;jettySize=auto;html=1;" edge="1" parent="1" source="hlbekgY0zkf7wDWTZu2V-11" target="hlbekgY0zkf7wDWTZu2V-13">
          <mxGeometry relative="1" as="geometry" />
        </mxCell>
        <mxCell id="hlbekgY0zkf7wDWTZu2V-30" style="edgeStyle=orthogonalEdgeStyle;rounded=0;orthogonalLoop=1;jettySize=auto;html=1;endArrow=none;endFill=0;" edge="1" parent="1" source="hlbekgY0zkf7wDWTZu2V-11">
          <mxGeometry relative="1" as="geometry">
            <mxPoint x="280" y="500" as="targetPoint" />
          </mxGeometry>
        </mxCell>
        <mxCell id="hlbekgY0zkf7wDWTZu2V-31" value="Failed" style="edgeLabel;html=1;align=center;verticalAlign=middle;resizable=0;points=[];" vertex="1" connectable="0" parent="hlbekgY0zkf7wDWTZu2V-30">
          <mxGeometry x="-0.0558" y="1" relative="1" as="geometry">
            <mxPoint as="offset" />
          </mxGeometry>
        </mxCell>
        <mxCell id="hlbekgY0zkf7wDWTZu2V-11" value="Connect to PC" style="whiteSpace=wrap;html=1;rounded=0;" vertex="1" parent="1">
          <mxGeometry x="340" y="470" width="120" height="60" as="geometry" />
        </mxCell>
        <mxCell id="hlbekgY0zkf7wDWTZu2V-19" value="" style="edgeStyle=orthogonalEdgeStyle;rounded=0;orthogonalLoop=1;jettySize=auto;html=1;" edge="1" parent="1" source="hlbekgY0zkf7wDWTZu2V-13" target="hlbekgY0zkf7wDWTZu2V-18">
          <mxGeometry relative="1" as="geometry" />
        </mxCell>
        <mxCell id="hlbekgY0zkf7wDWTZu2V-13" value="Request New Picture" style="whiteSpace=wrap;html=1;rounded=0;" vertex="1" parent="1">
          <mxGeometry x="340" y="610" width="120" height="60" as="geometry" />
        </mxCell>
        <mxCell id="hlbekgY0zkf7wDWTZu2V-17" value="Yes" style="edgeStyle=orthogonalEdgeStyle;rounded=0;orthogonalLoop=1;jettySize=auto;html=1;entryX=0.5;entryY=0;entryDx=0;entryDy=0;" edge="1" parent="1" source="hlbekgY0zkf7wDWTZu2V-15" target="hlbekgY0zkf7wDWTZu2V-11">
          <mxGeometry relative="1" as="geometry" />
        </mxCell>
        <mxCell id="hlbekgY0zkf7wDWTZu2V-24" style="edgeStyle=orthogonalEdgeStyle;rounded=0;orthogonalLoop=1;jettySize=auto;html=1;entryX=0;entryY=0.5;entryDx=0;entryDy=0;" edge="1" parent="1" source="hlbekgY0zkf7wDWTZu2V-15" target="hlbekgY0zkf7wDWTZu2V-22">
          <mxGeometry relative="1" as="geometry">
            <mxPoint x="280" y="1060" as="targetPoint" />
            <Array as="points">
              <mxPoint x="280" y="360" />
              <mxPoint x="280" y="1210" />
            </Array>
          </mxGeometry>
        </mxCell>
        <mxCell id="hlbekgY0zkf7wDWTZu2V-29" value="No" style="edgeLabel;html=1;align=center;verticalAlign=middle;resizable=0;points=[];" vertex="1" connectable="0" parent="hlbekgY0zkf7wDWTZu2V-24">
          <mxGeometry x="-0.9048" y="-1" relative="1" as="geometry">
            <mxPoint as="offset" />
          </mxGeometry>
        </mxCell>
        <mxCell id="hlbekgY0zkf7wDWTZu2V-15" value="24 Passed" style="rhombus;whiteSpace=wrap;html=1;rounded=0;" vertex="1" parent="1">
          <mxGeometry x="360" y="320" width="80" height="80" as="geometry" />
        </mxCell>
        <mxCell id="hlbekgY0zkf7wDWTZu2V-21" value="" style="edgeStyle=orthogonalEdgeStyle;rounded=0;orthogonalLoop=1;jettySize=auto;html=1;" edge="1" parent="1" source="hlbekgY0zkf7wDWTZu2V-18" target="hlbekgY0zkf7wDWTZu2V-20">
          <mxGeometry relative="1" as="geometry" />
        </mxCell>
        <mxCell id="hlbekgY0zkf7wDWTZu2V-18" value="Update Picture" style="whiteSpace=wrap;html=1;rounded=0;" vertex="1" parent="1">
          <mxGeometry x="340" y="750" width="120" height="60" as="geometry" />
        </mxCell>
        <mxCell id="hlbekgY0zkf7wDWTZu2V-33" value="" style="edgeStyle=orthogonalEdgeStyle;rounded=0;orthogonalLoop=1;jettySize=auto;html=1;" edge="1" parent="1" source="hlbekgY0zkf7wDWTZu2V-20" target="hlbekgY0zkf7wDWTZu2V-32">
          <mxGeometry relative="1" as="geometry" />
        </mxCell>
        <mxCell id="hlbekgY0zkf7wDWTZu2V-20" value="Request shows data" style="whiteSpace=wrap;html=1;rounded=0;" vertex="1" parent="1">
          <mxGeometry x="340" y="890" width="120" height="60" as="geometry" />
        </mxCell>
        <mxCell id="hlbekgY0zkf7wDWTZu2V-36" value="" style="edgeStyle=orthogonalEdgeStyle;rounded=0;orthogonalLoop=1;jettySize=auto;html=1;" edge="1" parent="1" source="hlbekgY0zkf7wDWTZu2V-22" target="hlbekgY0zkf7wDWTZu2V-35">
          <mxGeometry relative="1" as="geometry" />
        </mxCell>
        <mxCell id="hlbekgY0zkf7wDWTZu2V-22" value="Check For Shows" style="whiteSpace=wrap;html=1;rounded=0;" vertex="1" parent="1">
          <mxGeometry x="340" y="1180" width="120" height="60" as="geometry" />
        </mxCell>
        <mxCell id="hlbekgY0zkf7wDWTZu2V-34" style="edgeStyle=orthogonalEdgeStyle;rounded=0;orthogonalLoop=1;jettySize=auto;html=1;entryX=0.5;entryY=0;entryDx=0;entryDy=0;" edge="1" parent="1" source="hlbekgY0zkf7wDWTZu2V-32" target="hlbekgY0zkf7wDWTZu2V-22">
          <mxGeometry relative="1" as="geometry" />
        </mxCell>
        <mxCell id="hlbekgY0zkf7wDWTZu2V-32" value="Save SHow Data" style="whiteSpace=wrap;html=1;rounded=0;" vertex="1" parent="1">
          <mxGeometry x="340" y="1030" width="120" height="60" as="geometry" />
        </mxCell>
        <mxCell id="hlbekgY0zkf7wDWTZu2V-38" value="" style="edgeStyle=orthogonalEdgeStyle;rounded=0;orthogonalLoop=1;jettySize=auto;html=1;" edge="1" parent="1" source="hlbekgY0zkf7wDWTZu2V-35" target="hlbekgY0zkf7wDWTZu2V-37">
          <mxGeometry relative="1" as="geometry" />
        </mxCell>
        <mxCell id="hlbekgY0zkf7wDWTZu2V-35" value="Update Display" style="whiteSpace=wrap;html=1;rounded=0;" vertex="1" parent="1">
          <mxGeometry x="340" y="1320" width="120" height="60" as="geometry" />
        </mxCell>
        <mxCell id="hlbekgY0zkf7wDWTZu2V-37" value="Sleep" style="whiteSpace=wrap;html=1;rounded=0;" vertex="1" parent="1">
          <mxGeometry x="340" y="1460" width="120" height="60" as="geometry" />
        </mxCell>
      </root>
    </mxGraphModel>
  </diagram>
</mxfile>
